<?xml version="1.0" encoding="utf-8"?>
<!-- Generator: Adobe Illustrator 21.0.0, SVG Export Plug-In . SVG Version: 6.00 Build 0)  -->
<svg version="1.1" id="Capa_1" xmlns="http://www.w3.org/2000/svg" xmlns:xlink="http://www.w3.org/1999/xlink" x="0px" y="0px"
	 viewBox="0 0 534.9 536" style="enable-background:new 0 0 534.9 536;" xml:space="preserve">
<style type="text/css">
	.st0{fill-rule:evenodd;clip-rule:evenodd;fill:#009999;}
	.st1{fill-rule:evenodd;clip-rule:evenodd;fill:#FFFFFF;}
</style>
<g>
	<path class="st0" d="M534.9,267.4C534.9,119.7,415.2,0,267.4,0S0,119.7,0,267.4c0,147.8,119.7,267.4,267.4,267.4
		S534.9,415.2,534.9,267.4z"/>
	<path class="st1" d="M292.5,256.4c0,0,0.9,7.2,2,8.9c3,4.3,7.1,7.3,11.6,9.8c1.4,0.7,2.7,1.5,4.2,2c6.1,1.9,11.7,4.9,17.4,7.6
		c8.2,3.9,15.2,9.4,21.2,16.2c3.2,3.6,4.8,8.1,6.2,12.6c1.8,6.1,3.1,12.2,4.1,18.4c0.3,2.3,2.4,4.3,1.9,7c-0.1,0.6,0.1,1.4-0.2,1.9
		c-3,5.2-1.3,10.7-0.1,15.8c2.3,9.7,5.1,19.5,8.5,28.9c1.7,4.8,4.7,9.2,7.4,13.4c0.7,0.9,1.4,1.6,2.6,1.9c4.9,1.3,9.3,3.6,13.5,6.3
		c5.3,3.4,10.7,6.3,16.7,8.2c0.5,0.1,1,0.3,1.2,0.6c4.5,4.1,9.8,3,14.8,2.4c5.4-0.6,10.6-1.2,15.9,1c4.4,1.8,9.1,0.7,13.6,0.9
		c1.6,0.1,3.3,0.1,4.9,0.2c1.6,0.1,2.9,0.9,3.6,2.6c0.7,1.9-0.3,3.5-2.3,3.6c-1.7,0.1-3.6,0-5.3,0.1c-0.5,0-1.2-0.1-1.4,0.5
		c-0.1,0.7,0.5,1.1,1.1,1.3c0.4,0.2,0.9,0.3,1.4,0.3c4.1-0.1,8,0.2,12.1-0.3c2.5-0.3,3.9,0.6,4.6,2.9c0.2,0.6,0.5,1,1.1,1.3
		c1.1,0.5,1.7,1.4,1.5,2.6c-0.3,1.3-1.3,1.7-2.4,2c-0.3,0.1-0.7,0.1-1.1,0c-14.2-0.5-28.4,0.9-42.7,0.3c-9.7-0.4-19.5-1-28.7-4.9
		c-0.9-0.3-1.9-0.9-3.2-0.5c0.8,1.3,1.4,2.5,2,3.7c2,3.5,1.5,7.5,1.7,11.2c0.4,4.7-0.1,9.3-0.5,14c-0.3,3.7-2.6,6-4.8,8.5
		c-3.8,4.4-8.8,7.3-13.1,11c-5.1,4.3-9.6,9.3-14.7,13.6c-4,3.5-6.7,7.9-10,11.9c-5.5,6.7-12.1,12-18.8,17.3c-3,2.4-6.8,3.5-10.3,5
		c-4.7,2.1-9.5,4.1-14.7,5c-2.3,0.4-4.6,0.6-6.9,0.9c-15.5,1.1-30.9,2-46.5,1.6c-8.9-0.2-17.7,0.5-26.6-0.5
		c-9.5-1.1-18.7-3.8-26.9-9c-3-2-6.6-2.7-9.7-4.4c-4.1-2.2-8.3-4.3-11.8-7.6c-5.5-5.2-11-10.5-16.2-16.1c-5.6-5.9-10.7-12.4-15-19.3
		c-0.3-0.5-0.5-1-0.9-1.4c-5.2-5.2-8.7-11.7-11.8-18.3c-2.5-5.3-3.9-10.7-3.8-16.6c0-1.6,0.4-3.1,1.2-4.5c0.6-1.1,1.1-2.6,0.4-3.5
		c-0.7-0.9-2.2-0.2-3.3-0.1c-2.1,0.4-4.1,1.1-6,1.9c-3.6,1.5-7.3,2.4-11.2,2.7c-18.9,1.2-37.9,0.6-56.8,1.2c-0.8,0-1.7,0-2.6,0
		c-1.1,0-1.9-0.6-2.1-1.8c-0.1-1.2,0.2-2.4,1.5-2.6c1.5-0.3,2.3-1.2,3.1-2.2c1.1-1.5,2.7-1.9,4.5-2c3.6,0,7.1,0.2,10.7-0.4
		c1-0.1,2-0.1,3.3-1.2c-2.5,0-4.3,0-6.2,0c-2.3,0-4-1.5-4-3.4c0-1.9,1.3-3,3.8-3c3.5,0,7,0,10.5,0.1c1.9,0,3.8-0.1,5.4-1.1
		c3.6-1.9,7.3-2.2,11.3-2.2c4.1,0,8.1-0.3,11.7,2.2c1.2,0.7,2.6,0.7,3.8,0.1c4.4-2.1,9.3-3,13.6-5.4c6.8-3.9,14.4-6.2,20.9-10.7
		c1.3-1,2.7-1.7,3.9-2.9c0.9-0.9,2.1-1.8,3.3-2.1c5.8-1.6,8.9-5.7,10.8-11.3c3.2-9.5,6-19,9.5-28.4c1.9-5.1,0.8-10.5,0.7-15.7
		c-0.1-2.7-0.6-5.2-2.4-7.4c-0.7-0.8-0.6-1.7-0.1-2.4c2.8-3.8,2.5-8.5,3.6-12.9c1.7-6,2.1-12.6,5.4-18.1
		c4.2-7.1,10.3-12.3,17.6-16.3c5.1-2.7,10.3-5,15.6-7.3c4.4-1.8,8.8-3.3,13-5.6c3.6-2,6.6-4.6,9.2-7.7c0.9-1.1,1.2-2.5,1.2-4
		l1.6-9.7l1-6.8c0,0,2-6.1,0.2-8.3c-2.6-3.3-4.9-6.7-7.2-10.2c-2.8-4.2-3.6-8.5-1.4-12.7c1.9-3.7,1.5-7.5,1.7-11.3
		c0.2-3.6,0.2-7.3,0.8-10.9c1.1-6.8,5.1-11.7,10.4-15.9c3.9-3.1,8.4-4.6,13.2-5.6c1.7-0.3,3.2-1,4.9-1.1c7.6-0.7,13.6,1.7,18.9,7.4
		c6.1,6.4,9.5,13.5,9.7,22.3c0,2.6,0.1,5.3,0.1,7.9c0,2.1,0.5,4,1.7,5.9c2.4,3.8,1.9,8.1,0.8,12.1c-1.2,3.9-3.4,7.2-6.2,10.1
		c-1.3,1.3-1.8,2.8-1.8,4.5c0,2,0,4.1,0,6.1"/>
</g>
</svg>
