<?xml version="1.0" encoding="utf-8"?>
<!-- Generator: Adobe Illustrator 21.0.0, SVG Export Plug-In . SVG Version: 6.00 Build 0)  -->
<svg version="1.1" id="Capa_1" xmlns="http://www.w3.org/2000/svg" xmlns:xlink="http://www.w3.org/1999/xlink" x="0px" y="0px"
	 viewBox="0 0 1250 536" style="enable-background:new 0 0 1250 536;" xml:space="preserve">
<style type="text/css">
	.st0{fill-rule:evenodd;clip-rule:evenodd;fill:#009999;}
	.st1{fill-rule:evenodd;clip-rule:evenodd;fill:#FFFFFF;}
	.st2{fill:#666666;}
	.st3{fill:#009999;}
</style>
<g>
	<g>
		<path class="st0" d="M534.9,267.4C534.9,119.7,415.2,0,267.4,0S0,119.7,0,267.4c0,147.8,119.7,267.4,267.4,267.4
			S534.9,415.2,534.9,267.4z"/>
		<path class="st1" d="M292.5,256.4c0,0,0.9,7.2,2,8.9c3,4.3,7.1,7.3,11.6,9.8c1.4,0.7,2.7,1.5,4.2,2c6.1,1.9,11.7,4.9,17.4,7.6
			c8.2,3.9,15.2,9.4,21.2,16.2c3.2,3.6,4.8,8.1,6.2,12.6c1.8,6.1,3.1,12.2,4.1,18.4c0.3,2.3,2.4,4.3,1.9,7c-0.1,0.6,0.1,1.4-0.2,1.9
			c-3,5.2-1.3,10.7-0.1,15.8c2.3,9.7,5.1,19.5,8.5,28.9c1.7,4.8,4.7,9.2,7.4,13.4c0.7,0.9,1.4,1.6,2.6,1.9c4.9,1.3,9.3,3.6,13.5,6.3
			c5.3,3.4,10.7,6.3,16.7,8.2c0.5,0.1,1,0.3,1.2,0.6c4.5,4.1,9.8,3,14.8,2.4c5.4-0.6,10.6-1.2,15.9,1c4.4,1.8,9.1,0.7,13.6,0.9
			c1.6,0.1,3.3,0.1,4.9,0.2c1.6,0.1,2.9,0.9,3.6,2.6c0.7,1.9-0.3,3.5-2.3,3.6c-1.7,0.1-3.6,0-5.3,0.1c-0.5,0-1.2-0.1-1.4,0.5
			c-0.1,0.7,0.5,1.1,1.1,1.3c0.4,0.2,0.9,0.3,1.4,0.3c4.1-0.1,8,0.2,12.1-0.3c2.5-0.3,3.9,0.6,4.6,2.9c0.2,0.6,0.5,1,1.1,1.3
			c1.1,0.5,1.7,1.4,1.5,2.6c-0.3,1.3-1.3,1.7-2.4,2c-0.3,0.1-0.7,0.1-1.1,0c-14.2-0.5-28.4,0.9-42.7,0.3c-9.7-0.4-19.5-1-28.7-4.9
			c-0.9-0.3-1.9-0.9-3.2-0.5c0.8,1.3,1.4,2.5,2,3.7c2,3.5,1.5,7.5,1.7,11.2c0.4,4.7-0.1,9.3-0.5,14c-0.3,3.7-2.6,6-4.8,8.5
			c-3.8,4.4-8.8,7.3-13.1,11c-5.1,4.3-9.6,9.3-14.7,13.6c-4,3.5-6.7,7.9-10,11.9c-5.5,6.7-12.1,12-18.8,17.3c-3,2.4-6.8,3.5-10.3,5
			c-4.7,2.1-9.5,4.1-14.7,5c-2.3,0.4-4.6,0.6-6.9,0.9c-15.5,1.1-30.9,2-46.5,1.6c-8.9-0.2-17.7,0.5-26.6-0.5
			c-9.5-1.1-18.7-3.8-26.9-9c-3-2-6.6-2.7-9.7-4.4c-4.1-2.2-8.3-4.3-11.8-7.6c-5.5-5.2-11-10.5-16.2-16.1
			c-5.6-5.9-10.7-12.4-15-19.3c-0.3-0.5-0.5-1-0.9-1.4c-5.2-5.2-8.7-11.7-11.8-18.3c-2.5-5.3-3.9-10.7-3.8-16.6
			c0-1.6,0.4-3.1,1.2-4.5c0.6-1.1,1.1-2.6,0.4-3.5c-0.7-0.9-2.2-0.2-3.3-0.1c-2.1,0.4-4.1,1.1-6,1.9c-3.6,1.5-7.3,2.4-11.2,2.7
			c-18.9,1.2-37.9,0.6-56.8,1.2c-0.8,0-1.7,0-2.6,0c-1.1,0-1.9-0.6-2.1-1.8c-0.1-1.2,0.2-2.4,1.5-2.6c1.5-0.3,2.3-1.2,3.1-2.2
			c1.1-1.5,2.7-1.9,4.5-2c3.6,0,7.1,0.2,10.7-0.4c1-0.1,2-0.1,3.3-1.2c-2.5,0-4.3,0-6.2,0c-2.3,0-4-1.5-4-3.4c0-1.9,1.3-3,3.8-3
			c3.5,0,7,0,10.5,0.1c1.9,0,3.8-0.1,5.4-1.1c3.6-1.9,7.3-2.2,11.3-2.2c4.1,0,8.1-0.3,11.7,2.2c1.2,0.7,2.6,0.7,3.8,0.1
			c4.4-2.1,9.3-3,13.6-5.4c6.8-3.9,14.4-6.2,20.9-10.7c1.3-1,2.7-1.7,3.9-2.9c0.9-0.9,2.1-1.8,3.3-2.1c5.8-1.6,8.9-5.7,10.8-11.3
			c3.2-9.5,6-19,9.5-28.4c1.9-5.1,0.8-10.5,0.7-15.7c-0.1-2.7-0.6-5.2-2.4-7.4c-0.7-0.8-0.6-1.7-0.1-2.4c2.8-3.8,2.5-8.5,3.6-12.9
			c1.7-6,2.1-12.6,5.4-18.1c4.2-7.1,10.3-12.3,17.6-16.3c5.1-2.7,10.3-5,15.6-7.3c4.4-1.8,8.8-3.3,13-5.6c3.6-2,6.6-4.6,9.2-7.7
			c0.9-1.1,1.2-2.5,1.2-4l1.6-9.7l1-6.8c0,0,2-6.1,0.2-8.3c-2.6-3.3-4.9-6.7-7.2-10.2c-2.8-4.2-3.6-8.5-1.4-12.7
			c1.9-3.7,1.5-7.5,1.7-11.3c0.2-3.6,0.2-7.3,0.8-10.9c1.1-6.8,5.1-11.7,10.4-15.9c3.9-3.1,8.4-4.6,13.2-5.6c1.7-0.3,3.2-1,4.9-1.1
			c7.6-0.7,13.6,1.7,18.9,7.4c6.1,6.4,9.5,13.5,9.7,22.3c0,2.6,0.1,5.3,0.1,7.9c0,2.1,0.5,4,1.7,5.9c2.4,3.8,1.9,8.1,0.8,12.1
			c-1.2,3.9-3.4,7.2-6.2,10.1c-1.3,1.3-1.8,2.8-1.8,4.5c0,2,0,4.1,0,6.1"/>
	</g>
	<g>
		<path class="st2" d="M708.9,321.2c0,0.4-0.1,0.6-0.3,0.8c-2.2,3.2-4.3,6.4-6.3,9.5c-1.9,3.1-3.8,6.3-5.5,9.5
			c-1.7,3.2-3.3,6.5-4.8,9.9c-1.5,3.4-2.8,6.9-4,10.6c-1.2,3.6-2.3,7.2-3.1,10.9c-0.8,3.7-1.7,7.4-2.5,11.1
			c-0.8,3.7-1.7,7.4-2.6,11.1c-0.9,3.7-2.1,7.3-3.4,10.9c-1.2,3.2-2.7,6.3-4.3,9.1c-1.6,2.9-3.5,5.4-5.7,7.6
			c-2.2,2.2-4.7,3.9-7.6,5.2c-2.9,1.3-6.2,1.9-10,1.9c-3.2,0-6.2-0.5-9-1.5c-2.8-1-5.2-2.5-7.3-4.4c-2.1-1.9-3.7-4.2-4.9-6.8
			c-1.2-2.7-1.8-5.6-1.8-8.9c0-3.3,0.5-6.7,1.5-10.1c1-3.4,2.4-6.7,4.2-9.8c1.8-3.1,3.9-6,6.4-8.5c2.5-2.6,5.2-4.6,8.1-6.3
			c0.2-0.1,0.5-0.2,0.6-0.2c0.4,0,0.7,0.1,1,0.4c0.3,0.3,0.4,0.6,0.4,1c0,0.5-0.2,0.9-0.7,1.2c-0.6,0.5-1.2,0.9-1.9,1.3
			c-0.6,0.4-1.2,0.8-1.9,1.3c-2.8,2.3-5.1,4.9-7.1,8c-1.9,3-3.5,6.2-4.8,9.5c-0.6,1.8-1.1,3.6-1.5,5.5c-0.4,1.9-0.6,3.8-0.6,5.8
			c0,2.8,0.5,5.4,1.4,7.6c0.9,2.2,2.2,4.1,3.9,5.6c1.7,1.5,3.7,2.7,6,3.5c2.3,0.8,4.9,1.2,7.6,1.2c1.4,0,2.8-0.1,4.2-0.4
			c1.4-0.2,2.8-0.7,4.1-1.3c2.2-0.9,4.1-2.3,5.9-4.1c1.8-1.8,3.3-3.9,4.7-6.2c1.4-2.3,2.6-4.9,3.7-7.5c1.1-2.7,2-5.4,2.8-8.1
			c0.8-2.7,1.5-5.4,2.1-8c0.6-2.6,1.1-4.9,1.5-7c0.7-3.3,1.5-6.7,2.2-10c0.7-3.4,1.6-6.7,2.5-10c-1,1.4-2.3,2.8-3.7,4.4
			c-1.5,1.6-3,3-4.7,4.4c-1.7,1.3-3.5,2.4-5.3,3.3c-1.9,0.9-3.7,1.3-5.6,1.3c-1.9,0-3.3-0.4-4.5-1.2c-1.1-0.8-2-1.8-2.6-3
			c-0.6-1.2-1-2.5-1.2-4c-0.2-1.5-0.3-3-0.3-4.4c0-2,0.1-3.9,0.4-5.8c0.2-1.9,0.6-3.7,1-5.6c1.6-7.3,3.6-14.4,5.9-21.4
			c2.3-7,5.3-13.8,8.8-20.4c-1.8,1.1-3.6,2-5.4,2.9c-1.8,0.9-3.6,1.8-5.4,2.9c-2.4,1.5-4.8,3.2-7.2,5.2c-2.4,2-4.1,4.3-5.2,7
			c-0.2,0.6-0.4,1.2-0.6,1.8c-0.1,0.6-0.2,1.1-0.4,1.8c-0.2,0.6-0.6,0.8-1.3,0.8c-0.3,0-0.6-0.1-1-0.4c-0.3-0.2-0.5-0.6-0.5-0.9
			c0-2.2,0.4-4.2,1.2-6.1c0.8-1.9,1.8-3.6,3.1-5.2c1.3-1.6,2.8-3.1,4.4-4.4c1.6-1.3,3.3-2.5,5-3.6c2.8-1.7,5.6-3.3,8.5-4.9
			c2.9-1.5,5.8-2.8,8.9-3.9c0.1-0.2,0.2-0.3,0.4-0.5c0.2-0.1,0.4-0.2,0.6-0.2c0.4,0,0.7,0.1,1.1,0.4c0.3,0.3,0.5,0.6,0.5,1.1
			c0,0.2,0,0.3-0.1,0.4c-0.9,2.5-2,5.4-3.3,8.6c-1.3,3.2-2.6,6.6-3.9,10.1c-1.4,3.6-2.7,7.2-4,10.9c-1.3,3.7-2.5,7.4-3.5,10.9
			c-1,3.6-1.9,6.9-2.5,10.2c-0.6,3.2-1,6.2-1,8.7c0,0.9,0,1.7,0,2.6c0,0.9,0.2,1.7,0.5,2.5c0.3,0.7,0.7,1.4,1.3,1.9
			c0.6,0.5,1.4,0.7,2.5,0.7c0.8,0,1.6-0.1,2.3-0.4c0.7-0.2,1.4-0.5,2.1-0.8c2.2-1.1,4.3-2.5,6.1-4.1c1.9-1.6,3.6-3.4,5.2-5.3
			c1.6-1.9,3.2-3.9,4.6-6c1.4-2.1,2.8-4.1,4.1-6.1c0.1-0.1,0.2-0.2,0.2-0.3c1.1-2.3,2.3-4.8,3.7-7.3c1.4-2.5,2.8-5,4.4-7.4
			c1.5-2.4,3.2-4.8,4.9-7c1.7-2.3,3.5-4.3,5.3-6.2c0.3-0.3,0.7-0.5,1.1-0.5c0.4,0,0.7,0.1,1,0.4
			C708.8,320.4,708.9,320.8,708.9,321.2z"/>
		<path class="st2" d="M743,339.6c0,2.3-0.3,4.9-0.8,7.7c-0.5,2.8-1.3,5.6-2.4,8.3c-1.1,2.8-2.3,5.5-3.8,8.1c-1.5,2.6-3.2,5-5.2,7
			c-1.9,2-4.1,3.7-6.5,4.9c-2.4,1.2-4.9,1.8-7.6,1.8c-2,0-3.8-0.5-5.3-1.6c-1.5-1.1-2.7-2.5-3.7-4.1c-1-1.7-1.8-3.5-2.3-5.4
			c-0.5-1.9-0.7-3.8-0.7-5.5c0-2,0.3-4,0.8-6c1.7-5.7,4.5-10.7,8.3-15.2c3.8-4.4,8.5-7.8,14-10c0.1-0.1,0.3-0.1,0.5-0.1
			c0.4,0,0.8,0.2,1,0.5c0.2,0.3,0.3,0.6,0.3,1c0,0.4-0.2,0.8-0.7,1.1c-0.9,0.5-1.7,1-2.6,1.4c-0.9,0.5-1.7,1-2.6,1.7
			c-3.4,2.5-6.3,5.5-8.7,9.2c-2.4,3.6-4.2,7.5-5.5,11.5c-0.4,1.3-0.6,2.7-0.6,4.4c0,1.3,0.2,2.7,0.6,4.2c0.4,1.5,0.9,2.9,1.7,4.1
			c0.7,1.3,1.7,2.3,2.8,3.1c1.1,0.8,2.5,1.2,4,1.2c1,0,1.9-0.2,2.8-0.6c0.9-0.4,1.7-0.8,2.5-1.4c2.3-1.7,4.4-3.8,6.3-6.5
			c1.9-2.7,3.4-5.5,4.7-8.6c1.3-3.1,2.3-6.2,3-9.4c0.7-3.2,1-6.2,1-9v-1.1c-0.1-1.6-0.7-3-1.6-4.1c-1-1.1-2.1-2-3.6-2.7
			c-0.4-0.2-0.8-0.3-1.2-0.5c-0.4-0.1-0.8-0.3-1.2-0.5c-0.6-0.2-0.9-0.7-0.9-1.3c0-0.4,0.1-0.8,0.4-1.1c0.2-0.3,0.6-0.4,1-0.4h0.1
			c1.4,0.1,2.7,0.4,4,0.9c1.3,0.5,2.5,1.2,3.6,2c1.1,0.9,1.9,1.9,2.6,3.1c0.7,1.2,1.2,2.5,1.3,4c0.1,0.6,0.2,1.2,0.2,1.8
			C743,338.3,743,339,743,339.6z"/>
		<path class="st2" d="M783.1,330.8c0,0.1-0.1,0.3-0.2,0.6c-0.1,1-0.2,2.1-0.3,3c-0.1,1-0.2,1.9-0.4,2.9c-0.3,2-0.7,4-1,6
			c-0.4,2-0.8,4-1.2,5.9c-1.5,7.1-3.4,14.1-5.7,20.9c-2.3,6.9-4.7,13.6-7.5,20.4c-1,2.4-2,4.8-3.1,7.3c-1.1,2.4-2.3,4.8-3.6,7.1
			c-1.3,2.3-2.8,4.5-4.4,6.6c-1.6,2.1-3.4,4-5.5,5.7c-2.8,2.5-6.1,3.8-9.8,3.8c-2,0-3.9-0.3-5.7-1c-1.9-0.7-3.6-1.6-5.2-2.7
			c-1.6-1.1-3-2.5-4.3-4.1c-1.3-1.6-2.2-3.3-2.9-5c-0.1-0.1-0.1-0.2-0.1-0.5c0-0.4,0.2-0.7,0.5-0.9c0.3-0.2,0.6-0.4,1-0.4
			c0.4,0,0.8,0.2,1.1,0.6c0.3,0.6,0.6,1.1,0.9,1.7c0.3,0.6,0.6,1.1,1.1,1.6c1.6,2,3.6,3.6,5.9,5c2.3,1.3,4.7,2,7.3,2
			c2.9,0,5.5-1,7.7-3.1c1.7-1.5,3.4-3.4,4.9-5.6c1.5-2.2,3-4.6,4.4-7.2c1.4-2.6,2.7-5.3,3.9-8.1c1.2-2.8,2.3-5.7,3.3-8.5
			c1-2.8,2-5.5,2.8-8.2c0.9-2.7,1.7-5.1,2.4-7.3c-2.2,2.2-4.6,3.9-7.2,5.1c-2.6,1.2-5.5,1.9-8.6,1.9c-0.1,0-0.2,0-0.3,0
			c-0.1,0-0.2,0-0.3-0.1c-1.4-0.3-2.6-0.9-3.6-1.7c-1-0.8-1.7-1.7-2.3-2.8c-0.6-1.1-1-2.3-1.3-3.5c-0.2-1.3-0.4-2.5-0.4-3.8
			c0-3.7,0.5-7.4,1.6-11c1.1-3.6,2.7-7,4.9-10.1c1.4-1.9,2.9-3.7,4.6-5.4c1.7-1.8,3.6-3.3,5.6-4.6c2-1.3,4.2-2.4,6.5-3.2
			c2.3-0.8,4.6-1.3,7-1.3c0.4,0,1,0,1.8,0.1c0.8,0.1,1.6,0.2,2.5,0.3c0.8,0.2,1.6,0.4,2.2,0.7C782.8,330,783.1,330.3,783.1,330.8z
			 M779.9,331.9c-0.9-0.2-2-0.4-3.1-0.4c-2.2,0-4.3,0.4-6.4,1.2c-2.1,0.8-4.1,1.9-5.9,3.2c-1.9,1.3-3.6,2.8-5.1,4.5
			c-1.5,1.7-2.9,3.3-4.1,5c-1.7,2.6-3,5.5-3.9,8.6c-0.9,3.1-1.3,6.3-1.3,9.4c0,0.7,0,1.5,0.1,2.4c0.1,0.9,0.3,1.8,0.6,2.6
			c0.3,0.8,0.7,1.5,1.3,2.1c0.6,0.6,1.3,0.9,2.3,0.9c1.9,0,3.8-0.5,5.6-1.4c1.8-0.9,3.5-2.1,5-3.5c1.5-1.4,2.9-3,4.1-4.8
			c1.2-1.8,2.2-3.4,2.9-5c1.9-4,3.3-8.1,4.5-12.3C777.5,340.3,778.7,336.1,779.9,331.9z"/>
		<path class="st2" d="M827.3,358.5c-1.6,3.3-3.3,6.2-5,8.8c-1.7,2.6-4,5-6.8,7.5c-1.4,1.2-2.9,1.9-4.6,1.9c-0.9,0-1.8-0.3-2.6-0.8
			c-0.8-0.5-1.4-1.2-1.7-2.2c-0.1-0.3-0.2-0.7-0.2-1.3c0-0.6-0.1-1.1-0.1-1.8c0-0.6,0-1.2,0-1.8c0-0.6,0-1.1,0-1.4
			c-2.2,2.6-4.7,4.8-7.6,6.6c-2.9,1.8-6.2,2.7-9.7,2.7c-0.2,0-0.4-0.1-0.8-0.2c-0.3-0.1-0.6-0.2-0.8-0.3c-1.4-0.7-2.5-1.8-3.2-3.2
			c-0.7-1.5-1.1-3-1.1-4.4c0-2,0.3-4.1,0.8-6.1c0.5-2,1.2-3.9,2.1-5.8c0.9-1.9,1.9-3.7,3.1-5.4c1.2-1.7,2.4-3.4,3.7-4.9
			c3.3-4.1,7.2-7.7,11.5-10.8c4.3-3.1,9-5.5,14.1-7.4c0.1-0.1,0.2-0.1,0.4-0.1c0.4,0,0.8,0.2,1,0.5c0.2,0.3,0.3,0.6,0.3,1
			c0,0.6-0.2,0.9-0.6,1.1c-1.1,0.6-2.1,1.1-3.1,1.5c-1,0.5-2,1-3,1.5c-6.9,3.9-12.6,9-17.3,15.2c-0.9,1.2-1.9,2.6-2.9,4.2
			c-1,1.5-1.9,3.1-2.7,4.8c-0.8,1.6-1.5,3.3-2,5c-0.5,1.7-0.8,3.4-0.8,5c0,0.2,0,0.6,0.1,1.1c0.1,0.5,0.2,0.9,0.3,1.4
			c0.1,0.5,0.3,0.9,0.6,1.2c0.3,0.3,0.6,0.5,1,0.5c1.8,0,3.5-0.5,5.2-1.4c1.7-0.9,3.3-2.1,4.8-3.5c1.5-1.4,2.8-2.9,4-4.5
			c1.2-1.6,2.1-3.1,2.9-4.5c1.4-2.6,2.7-5.2,3.8-7.8c1.1-2.6,2.2-5.3,3.3-7.9c0.4-1.1,0.9-2.4,1.5-3.9c0.6-1.5,1.2-2.7,1.7-3.8
			c0.2-0.4,0.6-0.6,1.2-0.6c0.4,0,0.8,0.1,1.1,0.4c0.3,0.2,0.5,0.6,0.5,1l-0.1,0.2c-0.5,2.2-1.1,4.5-1.7,6.7c-0.6,2.3-1.3,4.5-2,6.6
			c-0.3,0.9-0.7,1.8-1.1,2.9c-0.4,1-0.8,1.9-1,2.7c-0.1,0.4-0.2,0.9-0.2,1.3c0,0.4-0.1,0.9-0.1,1.3c-0.2,1-0.4,2-0.6,2.9
			c-0.2,1-0.4,1.9-0.7,2.9c-0.3,1.2-0.6,2.5-0.8,3.8c-0.2,1.3-0.3,2.5-0.3,3.8c0,0.3,0,0.6,0,0.8c0,0.2,0,0.5,0.1,0.7
			c0.4,0,0.9-0.2,1.5-0.6c0.6-0.4,1.2-0.8,1.8-1.3c0.6-0.5,1.2-1.1,1.7-1.6c0.5-0.6,0.9-1,1.3-1.3c1.9-2,3.6-4.2,5.3-6.6
			c0.4-0.5,0.8-1,1.2-1.6c0.3-0.6,0.7-1.1,1.2-1.6c0.2-0.3,0.5-0.5,0.8-0.5c0.4,0,0.8,0.2,1.1,0.5
			C827.1,357.7,827.3,358.1,827.3,358.5z"/>
		<path class="st2" d="M889.5,334.4c0,1.5-0.4,3.1-1.1,4.6c-0.7,1.5-1.7,2.9-2.8,4.3c-1.1,1.4-2.4,2.6-3.8,3.7
			c-1.4,1.1-2.6,2.1-3.8,2.9c-1.8,1.2-3.7,2.4-5.6,3.4c-1.9,1.1-4.1,1.6-6.3,1.6c-0.5,0-1-0.1-1.6-0.2c-0.6-0.1-0.9-0.5-0.9-1.2
			c0-0.9,0.4-1.4,1.2-1.6c0.2-0.1,0.4-0.1,0.7-0.1c0.2,0,0.5,0,0.7-0.1c0.7-0.1,1.3-0.3,2-0.6c0.6-0.3,1.3-0.6,2-1
			c1-0.7,2.4-1.6,4-2.9c1.6-1.2,3.2-2.6,4.7-4.1c1.5-1.5,2.9-3,3.9-4.5c1.1-1.5,1.6-3,1.6-4.4c0-0.9-0.5-1.3-1.4-1.3
			c-0.4,0-0.7,0.1-1.1,0.2c-0.4,0.1-0.7,0.2-1.1,0.4c-3,1-5.7,2.5-8.1,4.5c-2.5,2-4.6,4.3-6.4,7c-1.8,2.7-3.2,5.5-4.2,8.5
			c-1,3-1.5,6.1-1.5,9.1c0,1,0.1,2.1,0.2,3.4c0.2,1.3,0.5,2.5,0.9,3.6c0.5,1.1,1.1,2.1,1.9,2.8c0.8,0.8,1.9,1.2,3.1,1.2
			c0.5,0,1-0.1,1.4-0.2c0.4-0.2,0.9-0.4,1.3-0.6c1.7-0.9,3.2-2.2,4.6-3.7c1.4-1.6,2.7-3.2,3.8-4.8c0.3-0.4,0.6-0.8,0.9-1.2
			c0.3-0.4,0.6-0.9,0.9-1.3c0.2-0.3,0.5-0.5,0.9-0.5c0.4,0,0.7,0.1,1.1,0.4c0.3,0.2,0.5,0.6,0.5,1c0,0.1-0.1,0.3-0.2,0.6
			c-0.7,1.4-1.7,2.9-2.8,4.5c-1.1,1.6-2.3,3.2-3.7,4.6c-1.4,1.4-2.8,2.6-4.4,3.6c-1.6,1-3.2,1.4-5,1.4c-1.9,0-3.5-0.5-4.8-1.6
			c-1.3-1.1-2.3-2.4-3-4c-0.7-1.6-1.3-3.3-1.6-5.1c-0.3-1.8-0.5-3.5-0.5-5c0-4.7,1-9.2,3-13.5c2-4.3,4.6-8.1,8-11.3c1-1,2.1-2,3.4-3
			c1.3-1,2.7-1.9,4.1-2.8c1.5-0.8,2.9-1.5,4.4-2c1.5-0.5,3-0.8,4.4-0.8c1.8,0,3.2,0.6,4.3,1.8C889,331.1,889.5,332.6,889.5,334.4z"
			/>
		<path class="st2" d="M932.8,366.8c0,0.4-0.2,0.6-0.5,0.8c-0.7,0.6-1.5,1.2-2.4,1.9c-0.9,0.7-1.9,1.3-3,2c-1,0.6-2.1,1.2-3.1,1.8
			c-1,0.6-1.9,1-2.7,1.3c-1.4,0.6-2.7,0.9-4,0.9c-1.9,0-3.2-0.7-4-2c-0.8-1.3-1.3-2.8-1.3-4.4c0-1.9,0.3-4.1,0.9-6.5
			c0.6-2.4,1.4-4.9,2.2-7.5c0.9-2.5,1.8-5,2.7-7.5c1-2.4,1.8-4.6,2.5-6.4c0.7-1.8,1.3-3.6,1.9-5.4c0.6-1.8,0.9-3.7,1.1-5.7
			c-1.1,0.1-2.6,0.7-4.5,1.9c-1.9,1.1-3.9,2.4-6,3.8c-2.1,1.5-4,2.9-5.9,4.3c-1.9,1.4-3.3,2.5-4.4,3.2l-3.3,6.7
			c-1.5,2.9-2.9,5.8-4.2,8.7c-1.3,2.9-2.6,5.8-3.8,8.8c-0.6,1.4-1.1,2.8-1.6,4.3c-0.5,1.4-1.1,2.8-1.7,4.3c-0.2,0.5-0.5,0.7-1,0.7
			c-0.2,0-0.6-0.2-1-0.5c-0.4-0.3-0.6-0.6-0.6-0.8c0-0.1,0-0.3,0.1-0.6c0.1-0.3,0.2-0.7,0.3-1.2c0.1-0.4,0.2-0.8,0.3-1.2
			c0.1-0.4,0.1-0.6,0.1-0.7c1-4.1,2.3-8.1,3.8-12c1.5-4,3.2-7.8,5-11.7c0.9-1.8,1.7-3.6,2.5-5.4c0.8-1.8,1.6-3.6,2.5-5.4
			c0.4-0.7,0.8-1.5,1.3-2.5c0.5-1,1.1-2,1.7-3c0.6-1,1.2-2,1.8-2.9c0.6-0.9,1.2-1.6,1.8-2.1c0.2-0.2,0.5-0.4,0.8-0.4
			c0.2,0,0.6,0.2,1,0.5c0.4,0.3,0.6,0.7,0.6,1c0,0.2-0.1,0.6-0.3,1.3c-0.2,0.7-0.5,1.4-0.8,2.2c-0.3,0.8-0.6,1.5-0.9,2.2
			c-0.3,0.7-0.4,1.2-0.5,1.4c1.1-1,2.3-2.1,3.7-3.2c1.4-1.2,2.9-2.3,4.4-3.2c1.6-1,3.2-1.8,4.9-2.5c1.7-0.6,3.2-1,4.7-1
			c0.9,0,1.7,0.4,2.5,1.2c0.8,0.8,1.2,1.6,1.3,2.5c0.1,0.6,0.2,1.1,0.2,1.4c0,1-0.2,2.3-0.6,3.8c-0.4,1.5-0.8,2.8-1.2,3.8
			c-0.6,1.8-1.5,4.2-2.7,7.1c-1.2,2.9-2.3,5.9-3.5,9c-1.2,3.1-2.2,6.1-3.1,8.9c-0.9,2.8-1.3,5.1-1.3,6.7c0,0.7,0.1,1.2,0.2,1.7
			c0.1,0.5,0.6,0.7,1.4,0.7c1.1,0,2.4-0.3,3.9-1c1.5-0.7,3-1.4,4.4-2.3c1.4-0.8,2.7-1.6,3.7-2.3c1-0.7,1.7-1,1.9-1
			c0.4,0,0.7,0.2,1,0.5C932.7,366.1,932.8,366.4,932.8,366.8z"/>
		<path class="st2" d="M1050.8,371.8c0,0.3-0.2,0.6-0.5,0.9c-0.7,0.7-1.7,1.4-2.9,2.2c-1.2,0.8-2.4,1.6-3.7,2.3
			c-1.3,0.7-2.6,1.3-3.9,1.8c-1.3,0.5-2.4,0.7-3.4,0.7c-1.2,0-2.3-0.2-3.3-0.7c-1-0.5-1.8-1.2-2.5-2c-0.7-0.8-1.3-1.8-1.8-2.8
			c-0.4-1.1-0.7-2.1-0.8-3.2c-0.1-1.2-0.2-2.3-0.4-3.5c-0.1-1.1-0.2-2.3-0.2-3.5c0-3,0.3-6.4,0.9-10.3c0.6-3.9,1.4-7.9,2.3-12
			c0.9-4.1,1.9-8.1,3.1-11.9c1.1-3.9,2.2-7.2,3.2-10c-1.4,2.3-2.9,4.5-4.3,6.8c-1.5,2.2-2.9,4.4-4.4,6.6c-1.3,2-2.6,4-4,5.9
			c-1.4,2-2.8,3.9-4.3,5.8c-1.5,1.9-3.1,3.7-4.8,5.4c-1.7,1.7-3.5,3.1-5.5,4.4c-0.1,0.1-0.3,0.1-0.6,0.1c-0.3,0-0.6-0.1-0.9-0.4
			c-0.3-0.2-0.5-0.5-0.6-0.8l-0.1,0.1c-0.1,0-0.1,0-0.1-0.1c0-0.1,0-0.1-0.1-0.2c-0.6-1.8-1.1-3.6-1.3-5.6c-0.3-1.9-0.5-3.8-0.6-5.7
			c-0.1-1.9-0.2-3.7-0.3-5.6c-0.1-1.9-0.2-3.7-0.3-5.6c-0.2-3.3-0.5-6.7-0.7-10c-0.2-3.4-0.5-6.7-0.8-10.1c-2.1,5.2-4,10.5-5.8,15.8
			c-1.8,5.3-3.7,10.6-5.7,15.9c-1.5,3.8-3.1,7.6-4.9,11.2c-1.8,3.6-3.9,7.1-6.4,10.4c-1.3,1.7-2.7,3.2-4.4,4.6
			c-1.6,1.4-3.3,2.7-5.2,3.7c-1.9,1-3.8,1.9-5.9,2.5c-2.1,0.6-4.2,0.9-6.2,0.9c-0.3,0-0.6-0.2-0.8-0.5c-0.2-0.3-0.4-0.6-0.4-0.9
			c0-0.7,0.3-1.2,1-1.3c1.3-0.3,2.5-0.6,3.7-0.8c1.1-0.2,2.3-0.6,3.6-1.1c2.9-1.3,5.4-3.1,7.6-5.4c2.2-2.3,4.2-4.8,5.9-7.6
			c1.7-2.8,3.2-5.7,4.5-8.7c1.3-3,2.4-5.9,3.5-8.7c0.9-2.5,1.8-5,2.6-7.5c0.8-2.5,1.6-5,2.5-7.5c0.8-2.5,1.7-5,2.7-7.5
			c1-2.5,2.1-4.9,3.4-7.2c-1.7,1.1-3.5,2-5.3,2.8c-1.8,0.8-3.6,1.8-5.3,2.8c-1.3,0.7-2.6,1.6-3.9,2.5c-1.3,0.9-2.5,1.9-3.7,3
			c-1.2,1.1-2.2,2.2-3.2,3.5c-1,1.2-1.7,2.6-2.3,4c-0.2,0.6-0.4,1.2-0.6,1.8c-0.1,0.6-0.3,1.2-0.5,1.8c-0.1,0.3-0.2,0.5-0.5,0.7
			c-0.2,0.2-0.5,0.2-0.7,0.2c-0.2,0-0.6-0.1-0.9-0.4c-0.4-0.2-0.6-0.5-0.6-0.7c0-2.3,0.4-4.4,1.2-6.4c0.8-2,1.9-3.8,3.2-5.5
			c1.4-1.7,2.9-3.3,4.6-4.7c1.7-1.4,3.4-2.7,5.2-3.8c2.8-1.8,5.8-3.5,9-5.2c3.1-1.7,6.3-3.1,9.4-4.1h0.2c0.6,0,1.1,0.2,1.4,0.7
			c0.2,0.1,0.3,0.3,0.4,0.6c0.1,0.2,0,0.5-0.1,0.6c1,4.1,1.9,8.3,2.4,12.5c0.6,4.2,1,8.5,1.5,12.7c0.3,3.1,0.6,6.1,0.9,9.1
			c0.3,3,0.3,6,0.1,9.1c2.3-3.1,4.7-6.1,7.1-9.1c2.4-3,4.7-6.1,6.9-9.2c2.4-3.5,4.8-6.9,7.1-10.2c2.3-3.4,4.8-6.7,7.2-10
			c0.9-1.1,1.7-2.3,2.6-3.4c0.9-1.2,1.8-2.3,2.7-3.3c0.2-0.2,0.5-0.4,0.8-0.4c0.4,0,0.8,0.2,1.2,0.6c0.4,0.4,0.6,0.8,0.6,1.2v0.2
			c-1.9,6.9-4,13.7-6.3,20.4c-2.3,6.7-4.2,13.5-5.8,20.6c-0.7,3.3-1.4,6.7-2,10c-0.6,3.3-0.9,6.6-0.9,10c0,0.9,0,1.9,0.1,3.1
			c0.1,1.2,0.2,2.3,0.6,3.4c0.3,1.1,0.8,2,1.4,2.7c0.6,0.7,1.6,1.1,2.8,1.1c1.1,0,2.3-0.3,3.7-0.9c1.4-0.6,2.7-1.3,3.9-2
			c1.3-0.7,2.4-1.4,3.3-2c0.9-0.6,1.5-0.9,1.7-0.9c0.4,0,0.7,0.2,1,0.5C1050.7,371.1,1050.8,371.4,1050.8,371.8z"/>
		<path class="st2" d="M1089.2,358.5c-1.6,3.3-3.3,6.2-5,8.8c-1.7,2.6-4,5-6.8,7.5c-1.4,1.2-2.9,1.9-4.6,1.9c-0.9,0-1.8-0.3-2.6-0.8
			c-0.8-0.5-1.4-1.2-1.7-2.2c-0.1-0.3-0.2-0.7-0.2-1.3c0-0.6-0.1-1.1-0.1-1.8c0-0.6,0-1.2,0-1.8c0-0.6,0-1.1,0-1.4
			c-2.2,2.6-4.7,4.8-7.6,6.6c-2.9,1.8-6.2,2.7-9.7,2.7c-0.2,0-0.4-0.1-0.8-0.2c-0.3-0.1-0.6-0.2-0.8-0.3c-1.4-0.7-2.5-1.8-3.2-3.2
			c-0.7-1.5-1.1-3-1.1-4.4c0-2,0.3-4.1,0.8-6.1c0.5-2,1.2-3.9,2.1-5.8c0.9-1.9,1.9-3.7,3.1-5.4c1.2-1.7,2.4-3.4,3.7-4.9
			c3.3-4.1,7.2-7.7,11.5-10.8c4.3-3.1,9-5.5,14.1-7.4c0.1-0.1,0.2-0.1,0.4-0.1c0.4,0,0.8,0.2,1,0.5c0.2,0.3,0.3,0.6,0.3,1
			c0,0.6-0.2,0.9-0.6,1.1c-1.1,0.6-2.1,1.1-3.1,1.5c-1,0.5-2,1-3,1.5c-6.9,3.9-12.6,9-17.3,15.2c-0.9,1.2-1.9,2.6-2.9,4.2
			c-1,1.5-1.9,3.1-2.7,4.8c-0.8,1.6-1.5,3.3-2,5c-0.5,1.7-0.8,3.4-0.8,5c0,0.2,0,0.6,0.1,1.1c0.1,0.5,0.2,0.9,0.3,1.4
			c0.1,0.5,0.3,0.9,0.6,1.2c0.3,0.3,0.6,0.5,1,0.5c1.8,0,3.5-0.5,5.2-1.4c1.7-0.9,3.3-2.1,4.8-3.5c1.5-1.4,2.8-2.9,4-4.5
			c1.2-1.6,2.1-3.1,2.9-4.5c1.4-2.6,2.7-5.2,3.8-7.8c1.1-2.6,2.2-5.3,3.3-7.9c0.4-1.1,0.9-2.4,1.5-3.9c0.6-1.5,1.2-2.7,1.7-3.8
			c0.2-0.4,0.7-0.6,1.2-0.6c0.4,0,0.8,0.1,1.1,0.4c0.3,0.2,0.5,0.6,0.5,1l-0.1,0.2c-0.5,2.2-1,4.5-1.7,6.7c-0.6,2.3-1.3,4.5-2,6.6
			c-0.3,0.9-0.7,1.8-1.1,2.9c-0.4,1-0.8,1.9-1,2.7c-0.1,0.4-0.2,0.9-0.2,1.3c0,0.4-0.1,0.9-0.1,1.3c-0.2,1-0.4,2-0.6,2.9
			c-0.2,1-0.4,1.9-0.7,2.9c-0.3,1.2-0.6,2.5-0.8,3.8c-0.2,1.3-0.3,2.5-0.3,3.8c0,0.3,0,0.6,0,0.8c0,0.2,0,0.5,0.1,0.7
			c0.4,0,0.9-0.2,1.5-0.6c0.6-0.4,1.2-0.8,1.8-1.3c0.6-0.5,1.2-1.1,1.7-1.6c0.5-0.6,0.9-1,1.2-1.3c1.9-2,3.6-4.2,5.3-6.6
			c0.4-0.5,0.8-1,1.2-1.6c0.3-0.6,0.7-1.1,1.2-1.6c0.2-0.3,0.5-0.5,0.8-0.5c0.4,0,0.8,0.2,1.1,0.5
			C1089.1,357.7,1089.2,358.1,1089.2,358.5z"/>
		<path class="st2" d="M1138,301.1c0,0.2,0,0.3-0.1,0.5c-2,4.8-3.9,9.5-5.7,14.2c-1.8,4.7-3.5,9.6-5.1,14.5c0.4,0.1,0.9,0.3,1.5,0.6
			c0.6,0.2,0.8,0.6,0.8,1.1c0,0.4-0.1,0.8-0.4,1.1c-0.2,0.3-0.6,0.5-1,0.5c-0.2,0-0.5-0.1-0.9-0.2c-0.3-0.1-0.6-0.2-0.9-0.4
			c-0.9,2.8-1.9,5.9-2.8,9.1c-0.9,3.2-1.8,6.5-2.5,9.7c-0.8,3.3-1.4,6.5-1.9,9.8c-0.5,3.2-0.7,6.3-0.7,9.3c0,0.2,0,0.6,0,1
			c0,0.4,0,0.8,0.1,1.2c0.1,0.4,0.2,0.7,0.3,1c0.2,0.3,0.4,0.4,0.8,0.4c0.6,0,1.3-0.4,2.4-1.3c1-0.9,2.1-1.9,3.1-3
			c1-1.1,2-2.3,3-3.3c1-1.1,1.7-1.8,2.1-2.3c0.2-0.3,0.5-0.5,0.8-0.5c0.4,0,0.7,0.2,1,0.5c0.3,0.3,0.5,0.6,0.5,1
			c0,0.3-0.1,0.5-0.2,0.7c-1.2,1.9-2.6,3.7-4.1,5.4c-1.5,1.7-3.1,3.2-4.7,4.7c-1.2,1.1-2.6,1.7-4,1.7c-1.2,0-2.2-0.3-2.9-1
			c-0.7-0.7-1.2-1.5-1.5-2.5c-0.3-1-0.6-2-0.6-3.1c-0.1-1.1-0.1-2.1-0.1-3.1c0-0.6,0-1.2,0-1.8c0-0.6,0.1-1.2,0.1-1.7
			c-0.8,1.2-1.8,2.5-3.1,3.9c-1.2,1.5-2.6,2.8-4,4.1c-1.5,1.3-3,2.4-4.5,3.3c-1.6,0.9-3.1,1.3-4.7,1.3c-1.6,0-2.9-0.4-3.9-1.1
			c-1-0.7-1.8-1.7-2.4-2.8c-0.6-1.1-0.9-2.4-1.2-3.8c-0.2-1.4-0.3-2.7-0.3-3.9c0-2.7,0.3-5.4,1-8.1c0.6-2.7,1.5-5.4,2.7-8.1
			c1.1-2.6,2.5-5.1,4-7.5c1.5-2.4,3.2-4.5,5.1-6.3c2.2-2.2,4.7-3.8,7.6-5c2.9-1.2,5.9-1.8,9.1-1.8c0.4,0,0.8,0,1.3,0
			c0.4,0,0.8,0,1.3,0.1c0.7-2.3,1.5-4.7,2.4-7.3c0.9-2.6,1.9-5.2,3-7.8c1.1-2.6,2.3-5.1,3.7-7.5c1.3-2.4,2.7-4.5,4.2-6.4
			c0.2-0.3,0.5-0.5,0.9-0.5c0.4,0,0.7,0.1,1.1,0.4C1137.8,300.3,1138,300.7,1138,301.1z M1121.3,332.2h-0.7
			c-3.6-0.1-6.9,0.8-9.7,2.5c-2.8,1.8-5.2,4-7.3,6.8c-2.1,2.7-3.8,5.8-5.1,9.1c-1.3,3.3-2.3,6.5-2.9,9.6c-0.4,1.6-0.6,3.2-0.6,4.8
			c0,0.5,0,1.2,0,2c0,0.8,0.2,1.7,0.4,2.5c0.2,0.8,0.5,1.5,0.9,2c0.4,0.6,1,0.8,1.7,0.8c1,0,2.3-0.6,3.9-1.8c1.6-1.2,3.3-2.6,5-4.3
			c1.7-1.6,3.3-3.3,4.9-4.9c1.5-1.6,2.7-2.8,3.4-3.5c0.1-0.1,0.2-0.2,0.4-0.2c0.3-4.3,1-8.6,2.2-12.9
			C1119,340.6,1120.1,336.4,1121.3,332.2z"/>
		<path class="st2" d="M1168.5,335.9c0,0.5,0,1-0.1,1.4c-0.1,0.4-0.2,0.9-0.3,1.4c-0.1,0.5-0.5,0.7-1,0.7c-0.2,0-0.6-0.1-1.1-0.3
			c-0.5-0.2-0.7-0.4-0.7-0.7l0.1-0.8c0-0.4,0-1-0.1-1.6c-0.1-0.6-0.2-1.2-0.5-1.8c-0.2-0.6-0.5-1.1-0.9-1.5
			c-0.4-0.4-0.9-0.6-1.5-0.6c-1.5,0-3.1,0.4-4.7,1.3c-1.7,0.9-3.1,1.8-4.3,2.6c-0.5,0.4-1.2,0.9-2,1.7c-0.9,0.7-1.8,1.5-2.7,2.4
			c-0.9,0.9-1.8,1.7-2.5,2.5c-0.8,0.8-1.3,1.5-1.6,1.9c-0.2,0.2-0.4,0.7-0.7,1.3c-0.3,0.7-0.6,1.3-0.8,2.1c-0.3,0.7-0.6,1.5-0.8,2.1
			c-0.3,0.7-0.5,1.2-0.7,1.6c-1.2,3-2.4,5.9-3.6,8.9c-1.1,3-2.2,6-3.2,9c-0.5,1.4-0.9,2.9-1.3,4.4c-0.4,1.5-0.9,3-1.3,4.4
			c-0.2,0.5-0.6,0.7-0.9,0.7c-0.2,0-0.6-0.1-1.1-0.4c-0.5-0.3-0.7-0.5-0.7-0.8c0-0.7,0.1-1.5,0.3-2.3c0.2-0.9,0.4-1.6,0.5-2.3
			c0.8-4,1.8-8,3-11.9c1.2-3.9,2.5-7.7,4.1-11.5c0.6-1.5,1.2-3.2,2-5.3c0.8-2,1.6-4.1,2.5-6.3c0.9-2.1,1.8-4.1,2.7-6
			c1-1.9,1.9-3.4,2.9-4.5c0.2-0.2,0.5-0.4,0.8-0.4c0.2,0,0.6,0.1,1.1,0.4c0.5,0.3,0.7,0.6,0.7,0.9c0,0.2-0.1,0.5-0.2,1
			c-0.1,0.5-0.2,1-0.4,1.5c-0.1,0.5-0.3,1-0.4,1.5c-0.2,0.5-0.3,0.8-0.3,1c2-1.5,4-2.8,6.2-4c2.2-1.2,4.5-1.8,7.1-1.8
			c1.1,0,2.1,0.2,2.9,0.7c0.8,0.5,1.5,1.1,2,1.8c0.6,0.7,1,1.6,1.2,2.5C1168.4,334,1168.5,335,1168.5,335.9z"/>
		<path class="st2" d="M1208.5,329.5c0,0.2,0,0.4-0.1,0.6c-2.3,6.3-4.8,12.5-7.5,18.5c-2.7,6-5.2,12.2-7.5,18.5
			c-1.2,3-2.2,6-3.1,9.1c-0.9,3-1.8,6.1-2.6,9.3c-0.2,0.7-0.4,1.3-0.6,1.9c-0.2,0.6-0.4,1.2-0.7,1.9c-0.7,2.3-1.5,4.5-2.3,6.7
			c-0.8,2.2-1.7,4.3-2.8,6.4c-1.1,2.1-2.3,4.1-3.6,6c-1.4,1.9-2.9,3.5-4.6,4.9c-1.7,1.4-3.6,2.5-5.7,3.3c-2,0.8-4.3,1.3-6.7,1.3
			c-2.5,0-4.9-0.5-7.1-1.3c-2.2-0.9-4.2-2.1-6.1-3.6c-1.9-1.5-3.5-3.3-5-5.4c-1.4-2.1-2.7-4.3-3.8-6.7c-0.1-0.2-0.2-0.5-0.2-0.6
			c-0.1-0.5,0.1-0.8,0.4-1.1c0.3-0.2,0.7-0.3,1.1-0.3c0.2,0,0.5,0.1,0.6,0.3c0.2,0.2,0.3,0.4,0.5,0.6c0.4,0.7,0.8,1.4,1.2,2.2
			c0.3,0.8,0.8,1.5,1.2,2.2c0.9,1.3,2,2.5,3.2,3.8c1.2,1.2,2.5,2.3,4,3.1c1.5,0.9,3,1.6,4.6,2.1c1.6,0.5,3.2,0.8,4.9,0.8
			c2.5,0,4.9-0.6,7-1.9c3.1-1.9,5.6-4.4,7.7-7.7c2-3.3,3.8-6.9,5.3-10.8c1.4-3.8,2.6-7.7,3.7-11.7c1-4,2.1-7.7,3.1-11.2
			c-0.7,0.7-1.6,1.4-2.7,2.2c-1.1,0.8-2.1,1.6-3.2,2.3c-1.1,0.7-2.2,1.3-3.4,1.8c-1.1,0.5-2.2,0.7-3.1,0.7c-1.8,0-3.4-0.6-4.9-1.8
			c-1.5-1.2-2.4-2.7-2.7-4.7c-0.3-1.2-0.5-2.4-0.6-3.4c-0.1-1.9,0-3.9,0.2-6.1c0.3-2.1,0.7-4.3,1.2-6.4c0.5-2.1,1.1-4.2,1.8-6.2
			c0.7-2,1.4-3.8,2.1-5.5c1.5-3.6,3.2-7.1,5-10.6c0.4-0.7,0.7-1.4,1-2.1c0.3-0.7,0.7-1.5,1.1-2.1c0.2-0.4,0.6-0.6,1.1-0.6
			c0.3,0,0.6,0.2,1,0.5c0.4,0.3,0.6,0.7,0.6,1.1l-0.3,1.4c-0.6,2.6-1.3,5.1-2.2,7.6c-0.9,2.5-1.8,4.9-2.8,7.2
			c-0.7,1.7-1.4,3.4-2.1,5.2c-0.7,1.8-1.3,3.7-1.9,5.5c-0.5,1.9-0.9,3.7-1.3,5.6c-0.3,1.9-0.4,3.8-0.3,5.6c0.1,0.6,0.1,1.1,0.2,1.8
			c0.1,0.6,0.3,1.2,0.5,1.7c0.2,0.5,0.6,1,0.9,1.3c0.4,0.3,0.9,0.5,1.5,0.5c1,0,2.3-0.4,3.7-1.1c1.4-0.7,2.8-1.5,4.3-2.5
			c1.4-1,2.8-2,4-3c1.3-1,2.3-1.9,3.1-2.7c1.6-4.4,3.3-8.8,5.2-13c1.9-4.2,3.9-8.4,6-12.5c0.9-1.6,1.7-3.3,2.6-5
			c0.9-1.7,1.8-3.3,2.8-4.9c0.2-0.4,0.6-0.6,1.1-0.6c0.4,0,0.8,0.2,1.1,0.5C1208.3,328.6,1208.4,329,1208.5,329.5z"/>
		<path class="st2" d="M1250,366.8c0,0.4-0.2,0.6-0.5,0.8c-0.7,0.6-1.5,1.2-2.4,1.9c-0.9,0.7-1.9,1.3-3,2c-1,0.6-2.1,1.2-3.1,1.8
			c-1,0.6-1.9,1-2.7,1.3c-1.4,0.6-2.7,0.9-4,0.9c-1.9,0-3.2-0.7-4-2c-0.8-1.3-1.3-2.8-1.3-4.4c0-1.9,0.3-4.1,0.9-6.5
			c0.6-2.4,1.4-4.9,2.2-7.5c0.9-2.5,1.8-5,2.7-7.5c1-2.4,1.8-4.6,2.5-6.4c0.7-1.8,1.3-3.6,1.9-5.4c0.6-1.8,0.9-3.7,1.1-5.7
			c-1.1,0.1-2.6,0.7-4.5,1.9c-1.9,1.1-3.9,2.4-6,3.8c-2.1,1.5-4,2.9-5.9,4.3c-1.9,1.4-3.3,2.5-4.4,3.2l-3.3,6.7
			c-1.5,2.9-2.9,5.8-4.2,8.7c-1.3,2.9-2.6,5.8-3.8,8.8c-0.6,1.4-1.1,2.8-1.6,4.3c-0.5,1.4-1,2.8-1.7,4.3c-0.2,0.5-0.5,0.7-1,0.7
			c-0.2,0-0.6-0.2-1-0.5c-0.4-0.3-0.6-0.6-0.6-0.8c0-0.1,0-0.3,0.1-0.6c0.1-0.3,0.2-0.7,0.3-1.2c0.1-0.4,0.2-0.8,0.3-1.2
			c0.1-0.4,0.1-0.6,0.1-0.7c1-4.1,2.3-8.1,3.8-12c1.5-4,3.2-7.8,5-11.7c0.9-1.8,1.7-3.6,2.5-5.4c0.8-1.8,1.6-3.6,2.5-5.4
			c0.4-0.7,0.8-1.5,1.3-2.5c0.5-1,1.1-2,1.7-3c0.6-1,1.2-2,1.8-2.9c0.6-0.9,1.2-1.6,1.8-2.1c0.2-0.2,0.5-0.4,0.8-0.4
			c0.2,0,0.6,0.2,1,0.5c0.4,0.3,0.6,0.7,0.6,1c0,0.2-0.1,0.6-0.3,1.3c-0.2,0.7-0.5,1.4-0.8,2.2c-0.3,0.8-0.6,1.5-0.9,2.2
			c-0.3,0.7-0.4,1.2-0.5,1.4c1.1-1,2.3-2.1,3.7-3.2c1.4-1.2,2.9-2.3,4.4-3.2c1.6-1,3.2-1.8,4.9-2.5c1.7-0.6,3.2-1,4.7-1
			c0.9,0,1.7,0.4,2.5,1.2c0.8,0.8,1.2,1.6,1.3,2.5c0.1,0.6,0.2,1.1,0.2,1.4c0,1-0.2,2.3-0.6,3.8c-0.4,1.5-0.8,2.8-1.2,3.8
			c-0.6,1.8-1.5,4.2-2.7,7.1c-1.2,2.9-2.3,5.9-3.5,9c-1.2,3.1-2.2,6.1-3.1,8.9c-0.9,2.8-1.3,5.1-1.3,6.7c0,0.7,0.1,1.2,0.2,1.7
			c0.1,0.5,0.6,0.7,1.4,0.7c1.1,0,2.4-0.3,3.9-1c1.5-0.7,3-1.4,4.4-2.3c1.4-0.8,2.7-1.6,3.7-2.3c1-0.7,1.7-1,1.9-1
			c0.4,0,0.7,0.2,1,0.5C1249.9,366.1,1250,366.4,1250,366.8z"/>
	</g>
	<g>
		<path class="st3" d="M673.2,138.3h14.9l-20.4,127.2h-18.4l-22.4-127.2h15.1l8.9,53.8l7.6,47.3h0.3l6.7-47.3L673.2,138.3z"/>
		<path class="st3" d="M748.2,138.3h19l22.2,127.2h-14.9l-3.8-24.3h-24.4l-3.5,24.3h-15.1L748.2,138.3z M748.1,229.1h20.6
			l-10.6-67.2h-0.2L748.1,229.1z"/>
		<path class="st3" d="M840.1,138.3h15.8v127.2h-15.8V138.3z"/>
		<path class="st3" d="M912.4,138.3h25.3c10.3,0,17.4,3,21.3,9c3.9,6,5.8,14.5,5.8,25.5l0.1,55.9c0,13.1-2.1,22.4-6.3,28.2
			c-4.2,5.7-11.3,8.6-21.3,8.6h-24.8V138.3z M949.1,172.5c0-7.9-1-13.7-3-17.1c-2-3.5-5.3-5.2-9.8-5.2h-8.1v103.3h8.1
			c3.1,0,5.5-0.6,7.2-1.7c3.7-2.5,5.6-9.4,5.6-20.7V172.5z"/>
		<path class="st3" d="M1019.6,138.3h15.8v127.2h-15.8V138.3z"/>
		<path class="st3" d="M1131.8,138.3h15.9l-25.1,62.8l26.8,64.4H1133l-24.9-60.8v60.8h-16V138.3h15.8v60.6L1131.8,138.3z"/>
		<path class="st3" d="M1208.2,138.3h19l22.2,127.2h-14.9l-3.8-24.3h-24.4l-3.5,24.3h-15.1L1208.2,138.3z M1208.1,229.1h20.6
			l-10.6-67.2h-0.2L1208.1,229.1z"/>
	</g>
</g>
</svg>
